<?xml version="1.0" encoding="UTF-8" standalone="no"?>
<!DOCTYPE svg PUBLIC "-//W3C//DTD SVG 1.1//EN" "http://www.w3.org/Graphics/SVG/1.1/DTD/svg11.dtd">
<svg width="100%" height="100%" viewBox="0 0 596 842" version="1.1" xmlns="http://www.w3.org/2000/svg" xmlns:xlink="http://www.w3.org/1999/xlink" xml:space="preserve" xmlns:serif="http://www.serif.com/" style="fill-rule:evenodd;clip-rule:evenodd;">
    <g id="Ebene-1" serif:id="Ebene 1">
        <path id="path9512" d="M172.571,367.604C172.571,367.604 186.286,195.033 275.429,380.175" style="fill:none;stroke:black;stroke-width:9.6px;"/>
        <path id="path9514" d="M203.429,165.318C203.429,165.318 182.857,185.89 185.143,214.461" style="fill:none;stroke:black;stroke-width:9.6px;"/>
        <path id="path9514-2" d="M308.719,176.301C308.719,176.301 288.147,196.872 290.433,225.444" style="fill:none;stroke:black;stroke-width:9.6px;"/>
        <path id="path9531" d="M49.143,766.461C54.857,440.684 523.429,374.461 523.429,775.604" style="fill:none;stroke:black;stroke-width:9.6px;"/>
        <path id="path9552" d="M414.857,157.318C464,151.604 483.429,103.82 478.857,37.318C478.857,37.318 534.038,163.963 445.714,212.175C403.867,235.019 367.485,162.827 414.857,157.318Z" style="fill:white;fill-opacity:0;stroke:black;stroke-width:9.6px;"/>
        <path id="path9552-4" d="M459.335,203.298C468.245,226.334 473.153,251.514 473.153,277.89C473.153,387.332 388.652,476.185 284.571,476.185C180.491,476.185 95.99,387.332 95.99,277.89C95.99,243.043 104.557,210.284 119.599,181.807C51.583,125.999 114.174,27.012 114.174,27.012C104.299,79.671 114.761,121.271 151.075,137.886C185.216,101.888 232.437,79.594 284.571,79.594C343.856,79.594 396.788,108.422 431.361,153.452C468.341,139.796 482.877,95.793 478.857,37.318C478.857,37.318 527.989,150.08 459.335,203.298Z" style="fill:none;stroke:black;stroke-width:9.32px;"/>
    </g>
</svg>
